<?xml version="1.0" encoding="UTF-8"?><svg id="Layer_2" xmlns="http://www.w3.org/2000/svg" viewBox="0 0 52.09 54.59"><defs><style>.cls-1{fill:#7c3aed;}</style></defs><g id="Layer_1-2"><path class="cls-1" d="M19.73,31.37h30.21c1.04,0,1.91-.8,2-1.84,.1-1.1,.15-2.28,.15-3.54,0-5.11-1.09-9.64-3.26-13.57-2.18-3.94-5.21-6.99-9.12-9.17-3.9-2.17-8.35-3.26-13.33-3.26s-9.77,1.12-13.77,3.36c-4,2.24-7.1,5.42-9.3,9.54C1.1,17.03,0,21.81,0,27.24s1.13,10.22,3.4,14.34c2.27,4.13,5.4,7.33,9.4,9.6,4,2.27,8.52,3.4,13.58,3.4,6.2,0,11.4-1.55,15.59-4.66,3.68-2.72,6.36-6.13,8.04-10.21,.34-.83-.29-1.73-1.18-1.73h-9.21c-.45,0-.88,.24-1.1,.64-2.47,4.5-6.51,6.75-12.14,6.75-4.1,0-7.55-1.28-10.36-3.84s-4.38-5.95-4.7-10.17c-.39-2.63-.34-5.6,.09-8.83,.51-4.09,2.11-7.34,4.8-9.74,2.68-2.4,5.91-3.6,9.69-3.6,4.16,0,7.64,1.22,10.46,3.65,2.58,2.23,4,5.12,4.27,8.68,.04,.54-.38,1-.92,1H19.85c-.8,0-1.46,.64-1.47,1.44l-.13,5.88c-.02,.83,.65,1.51,1.47,1.51Z"/></g></svg>