<?xml version="1.0" encoding="UTF-8"?><svg id="Layer_2" xmlns="http://www.w3.org/2000/svg" viewBox="0 0 403.93 54.59"><defs><style>.cls-1{fill:#fff;}.cls-2{fill:#7c3aed;}</style></defs><g id="Layer_1-2"><g><g><path class="cls-1" d="M62.95,23.65c1.3-2.53,3.08-4.47,5.34-5.83,2.26-1.36,4.76-2.04,7.53-2.04,2.1,0,4.1,.46,6.01,1.37,1.91,.91,3.42,2.13,4.55,3.65V5.44h8.29V48.62h-8.29v-4.79c-1.01,1.6-2.43,2.88-4.26,3.85-1.83,.97-3.95,1.46-6.36,1.46-2.72,0-5.21-.7-7.47-2.1-2.26-1.4-4.04-3.38-5.34-5.92-1.3-2.55-1.96-5.47-1.96-8.78s.65-6.17,1.96-8.7Zm22.32,3.71c-.78-1.42-1.83-2.51-3.15-3.27-1.32-.76-2.74-1.14-4.26-1.14s-2.92,.37-4.2,1.11c-1.28,.74-2.33,1.82-3.12,3.24-.8,1.42-1.2,3.1-1.2,5.05s.4,3.65,1.2,5.11c.8,1.46,1.85,2.58,3.15,3.36s2.69,1.17,4.17,1.17,2.94-.38,4.26-1.14c1.32-.76,2.37-1.85,3.15-3.27s1.17-3.12,1.17-5.11-.39-3.69-1.17-5.11Z"/><path class="cls-1" d="M133.18,16.29V48.62h-8.23v-4.08c-1.05,1.4-2.42,2.5-4.11,3.3s-3.53,1.2-5.51,1.2c-2.53,0-4.77-.53-6.71-1.6-1.95-1.07-3.47-2.64-4.58-4.73-1.11-2.08-1.66-4.56-1.66-7.44V16.29h8.17v17.8c0,2.57,.64,4.54,1.93,5.92,1.28,1.38,3.03,2.07,5.25,2.07s4.03-.69,5.31-2.07c1.28-1.38,1.92-3.36,1.92-5.92V16.29h8.23Z"/><path class="cls-1" d="M141.17,23.68c1.36-2.51,3.25-4.45,5.66-5.83,2.41-1.38,5.17-2.07,8.29-2.07,4.01,0,7.32,1,9.95,3,2.63,2,4.39,4.81,5.28,8.43h-8.81c-.47-1.4-1.25-2.5-2.36-3.3-1.11-.8-2.48-1.2-4.11-1.2-2.33,0-4.18,.85-5.54,2.54-1.36,1.69-2.04,4.09-2.04,7.21s.68,5.46,2.04,7.15c1.36,1.69,3.21,2.54,5.54,2.54,3.31,0,5.46-1.48,6.48-4.44h8.81c-.9,3.5-2.67,6.28-5.31,8.34-2.65,2.06-5.95,3.09-9.92,3.09-3.11,0-5.87-.69-8.29-2.07-2.41-1.38-4.3-3.33-5.66-5.84-1.36-2.51-2.04-5.44-2.04-8.78s.68-6.27,2.04-8.78Z"/><path class="cls-1" d="M176.21,23.65c1.3-2.53,3.07-4.47,5.31-5.83,2.24-1.36,4.74-2.04,7.5-2.04,2.41,0,4.52,.49,6.33,1.46s3.26,2.2,4.35,3.68v-4.61h8.23V48.62h-8.23v-4.73c-1.05,1.52-2.5,2.77-4.35,3.76s-3.98,1.49-6.39,1.49c-2.72,0-5.2-.7-7.44-2.1-2.24-1.4-4.01-3.38-5.31-5.92-1.3-2.55-1.95-5.47-1.95-8.78s.65-6.17,1.95-8.7Zm22.32,3.71c-.78-1.42-1.83-2.51-3.15-3.27-1.32-.76-2.74-1.14-4.26-1.14s-2.92,.37-4.2,1.11-2.33,1.82-3.12,3.24c-.8,1.42-1.2,3.1-1.2,5.05s.4,3.65,1.2,5.11c.8,1.46,1.85,2.58,3.15,3.36,1.3,.78,2.69,1.17,4.17,1.17s2.94-.38,4.26-1.14c1.32-.76,2.37-1.85,3.15-3.27,.78-1.42,1.17-3.12,1.17-5.11s-.39-3.69-1.17-5.11Z"/><path class="cls-1" d="M224.09,5.44V48.62h-8.17V5.44h8.17Z"/><path class="cls-1" d="M261.96,34.91h-23.63c.19,2.33,1.01,4.16,2.45,5.49s3.21,1.98,5.31,1.98c3.03,0,5.19-1.3,6.48-3.91h8.81c-.93,3.11-2.72,5.67-5.37,7.67-2.65,2-5.89,3.01-9.75,3.01-3.11,0-5.9-.69-8.37-2.07-2.47-1.38-4.4-3.34-5.78-5.87-1.38-2.53-2.07-5.45-2.07-8.75s.68-6.28,2.04-8.81c1.36-2.53,3.27-4.47,5.72-5.83,2.45-1.36,5.27-2.04,8.46-2.04s5.83,.66,8.26,1.98c2.43,1.32,4.32,3.2,5.66,5.63,1.34,2.43,2.01,5.22,2.01,8.37,0,1.17-.08,2.22-.23,3.15Zm-8.23-5.49c-.04-2.1-.8-3.78-2.28-5.05-1.48-1.26-3.29-1.9-5.43-1.9-2.02,0-3.73,.61-5.11,1.84-1.38,1.22-2.23,2.93-2.54,5.11h15.35Z"/><path class="cls-1" d="M295.39,19.47c2.37,2.43,3.56,5.83,3.56,10.18v18.96h-8.17V30.77c0-2.57-.64-4.54-1.93-5.92-1.28-1.38-3.03-2.07-5.25-2.07s-4.04,.69-5.34,2.07c-1.3,1.38-1.96,3.36-1.96,5.92v17.86h-8.17V16.29h8.17v4.03c1.09-1.4,2.48-2.5,4.17-3.3,1.69-.8,3.55-1.2,5.57-1.2,3.85,0,6.96,1.22,9.34,3.65Z"/><path class="cls-1" d="M306.57,23.65c1.3-2.53,3.08-4.47,5.34-5.83,2.26-1.36,4.76-2.04,7.53-2.04,2.1,0,4.1,.46,6.01,1.37,1.91,.91,3.42,2.13,4.55,3.65V5.44h8.29V48.62h-8.29v-4.79c-1.01,1.6-2.43,2.88-4.26,3.85-1.83,.97-3.95,1.46-6.36,1.46-2.72,0-5.21-.7-7.47-2.1-2.26-1.4-4.04-3.38-5.34-5.92-1.3-2.55-1.96-5.47-1.96-8.78s.65-6.17,1.96-8.7Zm22.32,3.71c-.78-1.42-1.83-2.51-3.15-3.27-1.32-.76-2.74-1.14-4.26-1.14s-2.92,.37-4.2,1.11c-1.28,.74-2.32,1.82-3.12,3.24-.8,1.42-1.2,3.1-1.2,5.05s.4,3.65,1.2,5.11c.8,1.46,1.85,2.58,3.15,3.36,1.3,.78,2.69,1.17,4.17,1.17s2.94-.38,4.26-1.14c1.32-.76,2.37-1.85,3.15-3.27s1.17-3.12,1.17-5.11-.39-3.69-1.17-5.11Z"/><path class="cls-1" d="M346.13,23.65c1.3-2.53,3.07-4.47,5.31-5.83,2.24-1.36,4.74-2.04,7.5-2.04,2.41,0,4.52,.49,6.33,1.46,1.81,.97,3.26,2.2,4.35,3.68v-4.61h8.23V48.62h-8.23v-4.73c-1.05,1.52-2.5,2.77-4.35,3.76-1.85,.99-3.98,1.49-6.39,1.49-2.72,0-5.2-.7-7.44-2.1-2.24-1.4-4.01-3.38-5.31-5.92-1.3-2.55-1.96-5.47-1.96-8.78s.65-6.17,1.96-8.7Zm22.32,3.71c-.78-1.42-1.83-2.51-3.15-3.27-1.32-.76-2.74-1.14-4.26-1.14s-2.92,.37-4.2,1.11c-1.28,.74-2.32,1.82-3.12,3.24-.8,1.42-1.2,3.1-1.2,5.05s.4,3.65,1.2,5.11c.8,1.46,1.85,2.58,3.15,3.36,1.3,.78,2.69,1.17,4.17,1.17s2.94-.38,4.26-1.14c1.32-.76,2.37-1.85,3.15-3.27s1.17-3.12,1.17-5.11-.39-3.69-1.17-5.11Z"/><path class="cls-1" d="M398.12,17.29c1.69-.97,3.63-1.46,5.81-1.46v8.58h-2.16c-2.57,0-4.5,.6-5.81,1.81-1.3,1.21-1.96,3.31-1.96,6.3v16.11h-8.17V16.29h8.17v5.02c1.05-1.71,2.42-3.05,4.11-4.03Z"/></g><path class="cls-2" d="M19.73,31.37h30.21c1.04,0,1.91-.8,2-1.84,.1-1.1,.15-2.28,.15-3.54,0-5.11-1.09-9.64-3.26-13.57-2.18-3.94-5.21-6.99-9.12-9.17-3.9-2.17-8.35-3.26-13.33-3.26s-9.77,1.12-13.77,3.36c-4,2.24-7.1,5.42-9.3,9.54C1.1,17.03,0,21.81,0,27.24s1.13,10.22,3.4,14.34c2.27,4.13,5.4,7.33,9.4,9.6,4,2.27,8.52,3.4,13.58,3.4,6.2,0,11.4-1.55,15.59-4.66,3.68-2.72,6.36-6.13,8.04-10.21,.34-.83-.29-1.73-1.18-1.73h-9.21c-.45,0-.88,.24-1.1,.64-2.47,4.5-6.51,6.75-12.14,6.75-4.1,0-7.55-1.28-10.36-3.84s-4.38-5.95-4.7-10.17c-.39-2.63-.34-5.6,.09-8.83,.51-4.09,2.11-7.34,4.8-9.74,2.68-2.4,5.91-3.6,9.69-3.6,4.16,0,7.64,1.22,10.46,3.65,2.58,2.23,4,5.12,4.27,8.68,.04,.54-.38,1-.92,1H19.85c-.8,0-1.46,.64-1.47,1.44l-.13,5.88c-.02,.83,.65,1.51,1.47,1.51Z"/></g></g></svg>