<svg width="24" height="24" viewBox="0 0 24 24" fill="none" xmlns="http://www.w3.org/2000/svg">
<mask id="mask0_47_39" style="mask-type:alpha" maskUnits="userSpaceOnUse" x="0" y="0" width="24" height="24">
<rect width="24" height="24" fill="#D9D9D9"/>
</mask>
<g mask="url(#mask0_47_39)">
<path d="M2.65 19C2.2 19 1.86667 18.85 1.65 18.55C1.43334 18.25 1.40834 17.8833 1.575 17.45L5.825 6.15C5.95834 5.83333 6.1875 5.5625 6.5125 5.3375C6.8375 5.1125 7.175 5 7.525 5C7.85834 5 8.18334 5.1125 8.50001 5.3375C8.81667 5.5625 9.04167 5.83333 9.17501 6.15L13.4 17.425C13.5667 17.8583 13.5458 18.2292 13.3375 18.5375C13.1292 18.8458 12.7833 19 12.3 19C12.1167 19 11.9333 18.9375 11.75 18.8125C11.5667 18.6875 11.4417 18.5333 11.375 18.35L10.325 15.425H4.675L3.65 18.325C3.58334 18.5083 3.45417 18.6667 3.2625 18.8C3.07084 18.9333 2.86667 19 2.65 19ZM5.4 13.4H9.60001L7.55 7.6H7.45L5.4 13.4ZM19 16C18.7167 16 18.4792 15.9042 18.2875 15.7125C18.0958 15.5208 18 15.2833 18 15V13H16C15.7167 13 15.4792 12.9042 15.2875 12.7125C15.0958 12.5208 15 12.2833 15 12C15 11.7167 15.0958 11.4792 15.2875 11.2875C15.4792 11.0958 15.7167 11 16 11H18V9C18 8.71667 18.0958 8.47917 18.2875 8.2875C18.4792 8.09583 18.7167 8 19 8C19.2833 8 19.5208 8.09583 19.7125 8.2875C19.9042 8.47917 20 8.71667 20 9V11H22C22.2833 11 22.5208 11.0958 22.7125 11.2875C22.9042 11.4792 23 11.7167 23 12C23 12.2833 22.9042 12.5208 22.7125 12.7125C22.5208 12.9042 22.2833 13 22 13H20V15C20 15.2833 19.9042 15.5208 19.7125 15.7125C19.5208 15.9042 19.2833 16 19 16Z" fill="#5a1fc0"/>
</g>
</svg>
